<svg xmlns="http://www.w3.org/2000/svg" x="0px" y="0px" width="50" height="50" viewBox="0 0 48 48">
  <path fill="#703812"
    d="M27.541,35.515l-1.667-3C25.697,32.197,25.363,32,25,32h-2c-0.363,0-0.697,0.197-0.874,0.515	l-1.667,3c-0.172,0.31-0.168,0.688,0.012,0.992C20.65,36.812,20.979,37,21.333,37h5.334c0.354,0,0.683-0.188,0.862-0.493	C27.709,36.202,27.713,35.824,27.541,35.515z">
  </path>
  <path fill="#324561"
    d="M24,48c-0.25,0-0.501-0.094-0.695-0.281c-0.396-0.384-0.407-1.017-0.023-1.414	C23.302,46.282,24,45.502,24,44.067c0-0.372-0.396-0.911-0.78-1.432c-0.571-0.775-1.219-1.654-1.219-2.755	c0-0.82,0.278-1.39,0.524-1.893c0.182-0.373,0.339-0.695,0.42-1.159c0.095-0.544,0.617-0.905,1.156-0.814	c0.545,0.095,0.909,0.612,0.814,1.156c-0.13,0.745-0.387,1.271-0.594,1.695c-0.211,0.432-0.321,0.673-0.321,1.015	c0,0.443,0.421,1.016,0.829,1.568c0.548,0.745,1.17,1.589,1.17,2.618c0,2.238-1.15,3.492-1.281,3.628C24.522,47.898,24.262,48,24,48	z">
  </path>
  <path fill="#6c8efc"
    d="M24,0C15.729,0,9,6.601,9,14.714C9,24.027,15.027,34,24,34s15-9.973,15-19.286	C39,6.601,32.271,0,24,0z"></path>
  <path fill="#324561"
    d="M14.767,11.983c-0.132,0-0.267-0.026-0.395-0.081c-0.508-0.219-0.742-0.807-0.524-1.313	c1.087-2.529,3.102-4.539,5.673-5.66c0.508-0.22,1.096,0.013,1.316,0.518c0.221,0.506-0.011,1.096-0.518,1.316	c-2.103,0.917-3.749,2.556-4.634,4.615C15.522,11.757,15.153,11.983,14.767,11.983z">
  </path>
</svg>